<svg xmlns="http://www.w3.org/2000/svg" width="23.266" height="23.266" viewBox="0 0 23.266 23.266"><path d="M225.119,454.1h11.45c.451,0,.819.489.819,1.09h0c0,.6-.366,1.09-.819,1.09h-11.45c-.451,0-.819-.489-.819-1.09h0C224.3,454.587,224.668,454.1,225.119,454.1Z" transform="translate(-219.212 -443.557)"/><path d="M456.279,225.119v11.45c0,.451-.487.819-1.09.819h0c-.6,0-1.09-.368-1.09-.819v-11.45c0-.451.487-.819,1.09-.819h0C455.793,224.3,456.279,224.668,456.279,225.119Z" transform="translate(-443.557 -219.212)"/><path d="M33.266,24.541a8.724,8.724,0,0,1-8.725,8.725H18.725A8.724,8.724,0,0,1,10,24.541V18.725A8.724,8.724,0,0,1,18.725,10h5.816a8.724,8.724,0,0,1,8.725,8.725Zm-1.453-5.453a7.635,7.635,0,0,0-7.635-7.635h-5.09a7.635,7.635,0,0,0-7.635,7.635v5.09a7.635,7.635,0,0,0,7.635,7.635h5.09a7.635,7.635,0,0,0,7.635-7.635v-5.09Z" transform="translate(-10 -10)"/></svg>