<svg xmlns="http://www.w3.org/2000/svg" width="21.539" height="29.601" viewBox="0 0 21.539 29.601"><path d="M150.6,15.116l2.893-2.893V28.1a.673.673,0,1,0,1.347,0V12.223l2.893,2.893a.65.65,0,0,0,.942,0,.651.651,0,0,0,0-.942l-4.038-4.038c-.066-.066-.136-.136-.2-.136a.744.744,0,0,0-.538,0c-.066.066-.136.066-.2.136l-4.038,4.038a.666.666,0,1,0,.942.942Zm12.989,2.9h-5.385v1.347h5.385V38.2H144.747V19.359h5.385V18.012h-5.385a1.352,1.352,0,0,0-1.347,1.347V38.2a1.352,1.352,0,0,0,1.347,1.347h18.845a1.352,1.352,0,0,0,1.347-1.347V19.359A1.35,1.35,0,0,0,163.592,18.012Z" transform="translate(-143.4 -9.95)"/></svg>